<?xml version="1.0" encoding="UTF-8" standalone="no"?>
<!-- Created with Inkscape (http://www.inkscape.org/) -->

<svg
   version="1.1"
   id="svg1"
   width="2666.6667"
   height="2666.6667"
   viewBox="0 0 2666.6667 2666.6667"
   sodipodi:docname="collect_vector.eps"
   xmlns:inkscape="http://www.inkscape.org/namespaces/inkscape"
   xmlns:sodipodi="http://sodipodi.sourceforge.net/DTD/sodipodi-0.dtd"
   xmlns="http://www.w3.org/2000/svg"
   xmlns:svg="http://www.w3.org/2000/svg">
  <defs
     id="defs1" />
  <sodipodi:namedview
     id="namedview1"
     pagecolor="#ffffff"
     bordercolor="#000000"
     borderopacity="0.25"
     inkscape:showpageshadow="2"
     inkscape:pageopacity="0.0"
     inkscape:pagecheckerboard="0"
     inkscape:deskcolor="#d1d1d1">
    <inkscape:page
       x="0"
       y="0"
       inkscape:label="1"
       id="page1"
       width="2666.6667"
       height="2666.6667"
       margin="0"
       bleed="0" />
  </sodipodi:namedview>
  <g
     id="g1"
     inkscape:groupmode="layer"
     inkscape:label="1">
    <g
       id="group-R5">
      <path
         id="path2"
         d="m 8736.15,14055.1 c 280.96,-42 517.32,-142.3 709,-300.6 261.08,-215.7 400.7,-509.7 418.86,-882 h -776.42 c -13.63,168 -81.73,301.9 -204.33,401.8 -122.59,99.9 -288.32,149.9 -497.18,149.9 -204.33,0 -360.98,-38.6 -469.95,-115.8 -108.97,-77.2 -163.46,-179.4 -163.46,-306.5 0,-99.9 36.33,-183.9 108.98,-252 72.64,-68.1 161.18,-121.5 265.62,-160.1 104.43,-38.6 258.81,-87.4 463.13,-146.4 272.43,-72.6 496.05,-146.4 670.86,-221.3 174.81,-75 325.78,-185.1 452.92,-330.4 127.13,-145.3 192.97,-338.2 197.51,-578.9 0,-213.4 -59.03,-404.1 -177.08,-572.1 -118.05,-168 -284.92,-299.7 -500.59,-395 -148.26,-65.6 -314.21,-108.6 -497.87,-129.1 v -410.47 h -652.47 v 430.97 c -142.99,26.5 -277.16,68.4 -402.52,125.6 -233.84,106.7 -418.86,252 -555.08,435.9 -136.21,183.9 -208.86,389.3 -217.94,616.4 h 803.67 c 13.62,-158.9 89.67,-291.7 228.16,-398.4 138.49,-106.8 312.16,-160.1 521.02,-160.1 217.95,0 387.08,42 507.41,126 120.32,84 180.48,191.8 180.48,323.5 0,140.8 -66.97,245.2 -200.91,313.3 -133.95,68.1 -346.22,143 -636.81,224.8 -281.51,77.1 -510.81,152.1 -687.89,224.7 -177.08,72.7 -330.32,183.9 -459.73,333.7 -129.4,149.9 -194.11,347.4 -194.11,592.6 0,199.8 59.03,382.5 177.08,548.3 118.06,165.7 287.19,296.2 507.41,391.6 131.51,56.9 274.76,96.9 429.76,119.8 v 419.7 h 652.47 v -419.4"
         style="fill:#000000;fill-opacity:1;fill-rule:nonzero;stroke:none"
         transform="matrix(0.13333333,0,0,-0.13333333,0,2666.6667)" />
      <path
         id="path3"
         d="M 6395.77,8331.22 C 5104.25,9043.14 4228.51,10418 4228.51,11995.7 c 0,2307.8 1873.62,4181.4 4181.4,4181.4 2307.79,0 4181.39,-1873.6 4181.39,-4181.4 0,-780 -214,-1510.5 -586.5,-2135.63 269.9,-53.36 560.8,-135.76 880.8,-242.48 l 1282.2,-427.47 c 283.5,345.74 753.1,513.62 1212.7,390.45 l 1197.8,-320.94 c 626,-167.73 998,-812.15 830.3,-1438.15 L 16570.4,4693.4 c -167.7,-626 -812.1,-998.05 -1438.1,-830.31 l -1197.8,320.94 c -530.4,142.14 -878.6,626.57 -870.4,1152.11 -114.1,47.35 -213.8,88.89 -288.5,120.27 -402.8,169.22 -930.4,12.11 -1074.1,-23.09 -126.8,-31.06 -1327.6,-353.91 -2331.29,-617.67 -980.19,-257.57 -1567.78,15.8 -1755.97,118 -33.97,18.46 -3641.31,2157.15 -4598.07,2731.02 -223.78,134.22 -383.08,353.95 -441.06,608.36 -57.99,254.41 -9.63,521.47 133.88,739.4 0,0.01 0,0.01 0.01,0.01 252.79,383.88 738.28,529.46 1155.36,362.37 14.33,-5.75 324.15,-139.79 363.64,-156.87 l 2165.62,-898.51 c 0.7,3.94 1.41,7.87 2.15,11.79 z M 13662.6,5088.74 c 70.1,-175.39 219.1,-316.77 415.4,-369.37 l 1197.7,-320.94 c 330.6,-88.56 670.8,107.88 759.4,438.42 l 838.2,3128.08 c 88.5,330.53 -107.9,670.79 -438.5,759.36 l -1197.7,320.94 c -162.1,43.42 -326.5,18.33 -462.4,-57.47 -61.8,-34.49 -117.8,-79.47 -164.9,-133.27 l -2.5,-2.88 v -0.02 l -2.5,-2.88 v -0.03 l -2.5,-2.89 v -0.03 l -2.4,-2.91 -0.1,-0.03 -2.4,-2.92 v -0.04 l -2.4,-2.94 -0.1,-0.03 -2.4,-2.99 c -15.2,-18.98 -29.4,-38.96 -42.4,-59.85 l -0.1,-0.23 -1.9,-3.04 -0.3,-0.47 -1.7,-2.82 -0.4,-0.66 -1.6,-2.64 -0.4,-0.8 -1.5,-2.52 -0.6,-0.92 -1.4,-2.41 -0.6,-1.02 -1.3,-2.33 -0.6,-1.09 -1.3,-2.27 -0.7,-1.17 -1.2,-2.21 -0.7,-1.22 -1.2,-2.17 -0.7,-1.28 -1.1,-2.13 -0.7,-1.32 -1.2,-2.1 -0.7,-1.36 -1.1,-2.07 -0.7,-1.41 -1,-2.04 -0.8,-1.44 -1,-2.03 -0.8,-1.47 -1,-2.01 -0.7,-1.5 -1,-1.99 -0.7,-1.53 -1,-1.98 -0.7,-1.55 -1,-1.97 -0.7,-1.57 -1,-1.97 -0.7,-1.59 -0.9,-1.96 -0.7,-1.61 -0.9,-1.95 -0.8,-1.63 -0.8,-1.95 -0.8,-1.65 -0.8,-1.94 -0.7,-1.67 -0.9,-1.94 -0.7,-1.68 -0.8,-1.94 -0.7,-1.69 -0.8,-1.94 -0.7,-1.71 -0.8,-1.94 -0.7,-1.72 -0.8,-1.95 -0.7,-1.73 -0.8,-1.94 -0.6,-1.74 -0.8,-1.95 -0.7,-1.75 -0.7,-1.96 -0.7,-1.76 -0.7,-1.96 -0.7,-1.76 -0.7,-1.97 -0.6,-1.77 -0.7,-1.98 -0.6,-1.77 -0.7,-1.99 -0.7,-1.78 -0.6,-1.99 -0.6,-1.79 -0.7,-2 -0.6,-1.79 -0.7,-2.02 -0.5,-1.78 -0.7,-2.04 -0.6,-1.78 -0.6,-2.06 -0.6,-1.77 -0.6,-2.1 -0.5,-1.74 -0.7,-2.14 -0.5,-1.71 -0.7,-2.21 -0.4,-1.66 -0.7,-2.33 -0.4,-1.55 -0.8,-2.59 -0.3,-1.3 -1.1,-3.91 -838.1,-3128.08 -1.5,-5.64 -0.3,-1.14 -1.4,-5.47 -0.2,-0.99 -1.3,-5.16 -0.1,-0.67 -1.3,-5.52 -0.3,-1.19 -1.2,-5.53 -0.1,-0.65 -1.1,-5.17 -0.2,-1 -1.1,-5.47 -0.2,-1.14 -1,-5.61 v -0.04 l -1,-5.63 -0.2,-1.15 -0.9,-5.47 -0.2,-0.98 -0.8,-5.14 -0.1,-0.7 -0.8,-5.51 -0.2,-1.2 -0.7,-5.51 -0.1,-0.65 -0.6,-5.15 -0.1,-1.01 -0.7,-5.45 -0.1,-1.15 -0.6,-5.53 v -0.1 l -0.5,-5.59 -0.1,-1.17 -0.4,-5.43 -0.1,-0.99 -0.4,-5.08 v -0.74 l -0.4,-5.46 v -1.22 l -0.3,-5.46 -0.1,-0.66 -0.2,-5.09 v -1.04 l -0.2,-5.39 v -1.17 l -0.1,-5.41 v -0.18 l -0.1,-5.51 v -1.2 -5.36 -1.02 l 0.1,-4.97 v -0.79 l 0.1,-5.37 v -1.25 l 0.2,-5.38 v -0.69 l 0.2,-4.98 v -1.08 l 0.3,-5.3 0.1,-1.2 0.3,-5.24 v -0.28 l 0.4,-5.4 0.1,-1.23 0.4,-5.27 0.1,-1.03 0.4,-4.84 0.1,-0.84 0.5,-5.27 0.2,-1.27 0.5,-5.28 0.1,-0.71 0.6,-4.85 0.1,-1.12 0.7,-5.19 0.2,-1.21 0.7,-5.08 v -0.35 l 0.8,-5.29 0.2,-1.24 0.9,-5.15 0.1,-1.04 0.8,-4.71 0.2,-0.88 0.9,-5.15 0.3,-1.26 1,-5.18 0.1,-0.69 0.9,-4.76 0.3,-1.11 1.1,-5.08 0.2,-1.19 1.1,-4.96 0.1,-0.36 1.2,-5.18 0.3,-1.21 1.2,-5.06 0.3,-0.99 1.1,-4.64 0.3,-0.84 1.3,-5.06 0.3,-1.2 1.4,-5.09 0.2,-0.6 1.3,-4.74 0.3,-1.03 1.5,-5.01 0.3,-1.08 1.6,-4.95 v -0.27 l 1.7,-5.12 0.3,-1.09 1.7,-5.01 0.2,-0.83 1.6,-4.7 0.3,-0.68 1.7,-5.04 0.4,-1.02 1.8,-5.08 0.2,-0.36 1.8,-4.88 0.3,-0.84 1.9,-5 0.3,-0.86 z m -2236.3,4285.98 -2.2,0.05 -10,0.25 -1.6,0.03 -11.6,0.22 -0.9,0.01 -10.5,0.13 -2.2,0.02 -10.9,0.08 h -0.4 l -11.6,0.01 -5.6,-0.01 -1.1,-0.01 -2.6,-0.01 -4.9,-0.04 -3.4,-0.03 -5.1,-0.06 -2.3,-0.03 -1.8,-0.02 -5.4,-0.09 -3.3,-0.06 -4.8,-0.1 -2.9,-0.06 h -0.2 l -6.7,-0.17 -3.3,-0.09 -4.5,-0.13 -3.2,-0.1 -6.8,-0.23 -3.3,-0.12 -4.4,-0.17 -3.3,-0.13 -6.8,-0.29 -3.2,-0.14 -4.4,-0.21 -3.4,-0.17 -5.6,-0.29 -1.3,-0.07 -2.9,-0.16 -4.4,-0.25 -3.6,-0.21 -4.6,-0.28 -2.5,-0.15 -2.3,-0.16 -4.7,-0.3 -3.5,-0.25 -4.2,-0.29 -3.2,-0.23 -1.4,-0.1 -5.2,-0.4 -3.7,-0.28 -3.9,-0.32 -3.6,-0.29 -6.4,-0.54 -3.7,-0.32 -3.7,-0.34 -3.8,-0.34 -6.3,-0.59 -3.8,-0.37 -3.5,-0.36 -3.9,-0.39 -4.1,-0.42 -2.4,-0.26 -3.6,-0.38 -3.4,-0.38 -4.1,-0.45 -3.4,-0.38 -3.2,-0.38 -3.4,-0.4 -3.3,-0.38 -4.2,-0.51 -3,-0.38 -3.8,-0.47 -3.3,-0.43 -3,-0.38 -4.3,-0.57 -2.9,-0.38 -4.2,-0.56 -3.9,-0.56 -2,-0.27 -4.5,-0.63 -2.6,-0.38 -4.5,-0.66 -0.6,-0.08 -5.3,-0.79 -4.4,-0.68 -2.4,-0.37 -4.7,-0.72 -1.6,-0.26 -4.4,-0.71 -4.4,-0.72 -2.1,-0.35 -4.8,-0.79 -1.7,-0.29 -4.5,-0.76 -4.6,-0.8 -1.6,-0.28 -4.9,-0.87 -1.7,-0.31 -4.6,-0.84 -5.3,-0.96 -0.7,-0.13 -5,-0.95 -1.6,-0.31 -4.8,-0.92 c -2,-0.38 -3.9,-0.76 -5.8,-1.13 l -5.1,-1.01 -1.5,-0.3 -5,-1.02 c -1.9,-0.4 -3.9,-0.79 -5.8,-1.19 l -5.1,-1.07 -1.2,-0.26 -5.3,-1.12 c -1.9,-0.42 -3.8,-0.84 -5.7,-1.25 l -5.2,-1.15 -0.9,-0.19 -5.5,-1.23 -5.7,-1.32 -5.6,-1.3 -0.2,-0.05 -5.6,-1.32 -0.4,-0.09 -5.5,-1.31 c -1.9,-0.47 -3.8,-0.93 -5.7,-1.4 l -5.5,-1.37 -0.6,-0.13 -5.4,-1.36 c -1.9,-0.49 -3.8,-0.97 -5.7,-1.46 l -5.5,-1.42 -0.5,-0.13 -5.5,-1.44 c -1.9,-0.5 -3.8,-1.01 -5.7,-1.52 l -5.5,-1.49 -0.4,-0.09 -5.5,-1.53 c -1.9,-0.53 -3.8,-1.06 -5.7,-1.59 l -5.7,-1.61 c -189.4,-53.67 -373.7,-142.29 -560.4,-272.01 -263.2,-182.94 -618.3,-372.5 -1208.66,-372.5 -479.44,0 -1643.76,0 -1643.76,0 -115.91,0 -223.31,-36.77 -311.14,-99.26 l -2.97,-2.13 -0.79,-0.57 -2.22,-1.62 -0.87,-0.64 -2.22,-1.64 -0.75,-0.55 -2.73,-2.06 -0.18,-0.13 -3.09,-2.36 -0.04,-0.03 -2.89,-2.24 -0.53,-0.41 -2.46,-1.93 -0.56,-0.44 -2.61,-2.09 -0.29,-0.22 -2.98,-2.41 -3.02,-2.49 -0.06,-0.05 -2.82,-2.35 -0.36,-0.3 -2.63,-2.23 -0.28,-0.23 -2.87,-2.47 c -0.99,-0.86 -1.98,-1.72 -2.97,-2.59 l -2.92,-2.58 -0.07,-0.06 -2.78,-2.49 -0.2,-0.19 c -3.84,-3.47 -7.64,-7 -11.39,-10.59 l -0.07,-0.07 -2.75,-2.65 -0.06,-0.06 c -3.74,-3.64 -7.42,-7.32 -11.06,-11.07 l -0.05,-0.05 c -4.55,-4.69 -9.02,-9.46 -13.4,-14.32 l -0.01,-0.01 c -3.52,-3.89 -6.97,-7.83 -10.36,-11.81 l -0.02,-0.03 c -4.24,-4.97 -8.38,-10.02 -12.44,-15.15 l -0.05,-0.07 c -3.24,-4.09 -6.41,-8.24 -9.53,-12.42 l -0.07,-0.1 -2.27,-3.07 -0.05,-0.06 c -3.07,-4.2 -6.09,-8.45 -9.04,-12.73 l -0.14,-0.2 c -2.94,-4.26 -5.81,-8.58 -8.63,-12.93 l -0.15,-0.23 -1.95,-3.04 -0.16,-0.25 -2.04,-3.23 c -0.69,-1.12 -1.39,-2.24 -2.08,-3.36 l -2.04,-3.34 -0.07,-0.11 -1.88,-3.13 -0.23,-0.38 -1.79,-3.04 -0.15,-0.25 -1.94,-3.33 c -0.65,-1.15 -1.3,-2.3 -1.96,-3.44 l -1.85,-3.3 -0.22,-0.4 -1.63,-2.95 -0.27,-0.48 -1.7,-3.16 -0.09,-0.16 -1.84,-3.45 -1.8,-3.44 -0.14,-0.27 -1.58,-3.07 -0.29,-0.58 -1.46,-2.9 -0.27,-0.52 -1.66,-3.37 c -0.58,-1.19 -1.16,-2.38 -1.74,-3.57 l -1.61,-3.38 -0.28,-0.59 -1.33,-2.85 -0.33,-0.7 -1.34,-2.94 -0.23,-0.49 -1.57,-3.49 -1.56,-3.54 -0.19,-0.43 -1.29,-3 -0.34,-0.78 -1.16,-2.76 -0.33,-0.77 -1.28,-3.11 -0.15,-0.35 -1.47,-3.63 -1.37,-3.46 -0.3,-0.77 -1.07,-2.75 -0.35,-0.91 -1.05,-2.75 -0.29,-0.79 -1.3,-3.51 -1.32,-3.64 -0.21,-0.57 -1.04,-2.95 -0.34,-0.96 -0.91,-2.64 -0.34,-0.99 -0.96,-2.86 -0.24,-0.7 -1.2,-3.65 -1.14,-3.56 -0.29,-0.92 -0.84,-2.68 -0.33,-1.09 -0.8,-2.62 -0.3,-1.01 -0.94,-3.15 -0.13,-0.44 -1.05,-3.68 -0.19,-0.68 -0.82,-2.93 -0.3,-1.11 -0.7,-2.56 -0.31,-1.17 -0.71,-2.68 -0.25,-0.97 -0.94,-3.67 -0.9,-3.66 -0.25,-1.02 -0.63,-2.66 -0.29,-1.22 -0.58,-2.54 -0.27,-1.19 -0.65,-2.89 -0.17,-0.79 -0.8,-3.72 -0.15,-0.7 -0.62,-2.99 -0.24,-1.21 -0.5,-2.54 -0.25,-1.28 -0.5,-2.6 -0.22,-1.14 -0.63,-3.48 -0.05,-0.24 -0.65,-3.75 -0.18,-1.07 -0.45,-2.68 -0.21,-1.31 -0.4,-2.52 -0.21,-1.3 -0.42,-2.76 -0.15,-1.01 -0.54,-3.76 -0.09,-0.64 -0.42,-3.14 -0.17,-1.25 -0.32,-2.56 -0.17,-1.37 -0.31,-2.56 -0.15,-1.26 -0.35,-3.17 -0.07,-0.63 -0.4,-3.81 -0.11,-1.06 -0.26,-2.76 -0.13,-1.36 -0.22,-2.53 -0.12,-1.37 -0.22,-2.71 -0.09,-1.14 -0.28,-3.83 -0.03,-0.43 -0.23,-3.42 -0.07,-1.26 -0.16,-2.62 -0.07,-1.41 -0.13,-2.57 -0.06,-1.34 -0.13,-3.01 -0.04,-0.86 -0.13,-3.87 -0.03,-1 -0.08,-2.89 -0.03,-1.37 -0.05,-2.58 -0.02,-1.41 -0.03,-2.69 -0.02,-1.23 -0.01,-3.9 0.03,-5.07 0.01,-1.34 0.07,-4.48 0.01,-0.63 0.13,-5.04 0.04,-1.2 0.16,-4.37 0.03,-0.79 0.24,-5.14 0.05,-0.79 0.27,-4.72 0.03,-0.58 c 0.23,-3.68 0.5,-7.35 0.81,-11.01 5.58,-67.02 23.48,-130.58 51.44,-188.39 h 0.74 c 86.98,-179.86 271.22,-304.03 484.24,-304.03 l 2652.79,4.63 c 148,0 268,-120.08 268,-267.98 0,-147.9 -120,-267.98 -268,-267.98 l -2652.79,-0.01 c -424.24,0 -791.08,247.68 -963.65,606.12 -1.48,3.09 -4.41,9.28 -4.41,9.28 l -2489.3,1032.8 c 0,0 -338.78,146.81 -353.5,152.71 -175.6,70.34 -379.95,8.9 -486.38,-152.71 v -0.01 c -60.45,-91.79 -80.81,-204.27 -56.39,-311.42 24.42,-107.16 91.52,-199.7 185.77,-256.23 952.52,-571.32 4543.69,-2700.9 4577.51,-2719.27 144.61,-78.54 597.4,-266.93 1350.59,-69.01 1007.55,264.78 2213.05,588.78 2340.35,619.96 190,46.54 887.9,219.5 1420.5,-4.26 51.3,-21.52 114.3,-47.85 185.7,-77.55 l 749.5,2796.89 -1215,405.09 c -399.3,133.1 -743.9,228.06 -1057.3,265.74 l -12.9,1.53 -12.6,1.43 -0.6,0.07 -12.6,1.36 c -4.2,0.44 -8.5,0.88 -12.8,1.32 l -12.2,1.21 -1.1,0.11 -12.3,1.14 -12.4,1.1 -0.8,0.08 -11.4,0.95 -1.3,0.1 -12.2,0.95 -11.9,0.88 -1.6,0.11 -11.1,0.75 -0.9,0.06 -12.2,0.77 -0.3,0.02 -11.3,0.64 -1.9,0.11 -11.6,0.6 -12,0.56 -1.5,0.06 -10.3,0.42 -1.9,0.08 -11.7,0.41 z m -7.8,554.82 c 404.6,587.66 641.5,1299.46 641.5,2066.16 0,2014.6 -1635.6,3650.1 -3650.09,3650.1 -2014.52,0 -3650.06,-1635.5 -3650.06,-3650.1 0,-1364.1 750.01,-2554.55 1859.81,-3180.96 200.1,247.23 506.09,405.4 848.72,405.4 0,0 1164.32,0 1643.76,0 435.66,0 698.13,138.4 892.36,273.4 458.2,318.35 903.9,449.15 1414,436"
         style="fill:#000000;fill-opacity:1;fill-rule:evenodd;stroke:none"
         transform="matrix(0.13333333,0,0,-0.13333333,0,2666.6667)" />
    </g>
  </g>
</svg>
