<?xml version="1.0" encoding="UTF-8" standalone="no"?>
<!-- Created with Inkscape (http://www.inkscape.org/) -->

<svg
   version="1.1"
   id="svg1"
   width="2933.3333"
   height="2800"
   viewBox="0 0 2933.3333 2800"
   sodipodi:docname="production_vector.eps"
   xmlns:inkscape="http://www.inkscape.org/namespaces/inkscape"
   xmlns:sodipodi="http://sodipodi.sourceforge.net/DTD/sodipodi-0.dtd"
   xmlns="http://www.w3.org/2000/svg"
   xmlns:svg="http://www.w3.org/2000/svg">
  <defs
     id="defs1" />
  <sodipodi:namedview
     id="namedview1"
     pagecolor="#ffffff"
     bordercolor="#000000"
     borderopacity="0.25"
     inkscape:showpageshadow="2"
     inkscape:pageopacity="0.0"
     inkscape:pagecheckerboard="0"
     inkscape:deskcolor="#d1d1d1">
    <inkscape:page
       x="0"
       y="0"
       inkscape:label="1"
       id="page1"
       width="2933.3333"
       height="2800"
       margin="0"
       bleed="0" />
  </sodipodi:namedview>
  <g
     id="g1"
     inkscape:groupmode="layer"
     inkscape:label="1">
    <g
       id="group-R5">
      <path
         id="path2"
         d="M 10458.5,5680.2 V 7702.8 L 12210.1,6691.5 Z M 12708,6864 10358.9,8220.2 c -61.6,35.6 -137.5,35.6 -199.2,0 -61.6,-35.6 -99.5,-101.3 -99.5,-172.5 V 5335.2 c 0,-71.1 37.9,-136.9 99.5,-172.4 30.8,-17.8 65.2,-26.7 99.6,-26.7 34.4,0 68.8,8.9 99.6,26.7 L 12708,6519 c 61.6,35.6 99.6,101.3 99.6,172.5 0,71.1 -38,136.9 -99.6,172.5"
         style="fill:#100f0d;fill-opacity:1;fill-rule:nonzero;stroke:none"
         transform="matrix(0.13333333,0,0,-0.13333333,0,2800)" />
      <path
         id="path3"
         d="M 16522.5,4067.9 H 6040.21 c -105.28,0 -169.72,59 -169.72,91.1 V 9367.1 H 16611.3 c 28.5,0 55.7,5 80.9,14.3 V 4159 c 0,-32.1 -64.4,-91.1 -169.7,-91.1 z M 5310.8,12240.8 c -13.83,29 18.95,110 113.99,155.3 l 1335.12,636.6 1090.81,-680.8 -2098.43,-1037.1 z m 9575.9,4666.4 c 37.4,17.9 73,24.7 103.3,24.7 46.7,0 80.7,-16.3 89.1,-33.9 l 375.7,-787.9 -794,-392.4 -982.7,613.3 z m -1711.9,-816.1 990.6,-618.2 -1083.3,-535.4 -1007.7,628.9 z m -1603.7,-764.6 1015.6,-633.9 -1083.2,-535.3 -1032.9,644.5 z M 9967.36,14561.9 11008.1,13912.4 9924.79,13377 8866.9,14037.2 Z m -1634.35,-1957 -1069.83,667.7 1100.46,524.7 1065.75,-665.1 -1083.83,-535.7 c -4.08,2.9 -8.23,5.8 -12.55,8.4 z m -169.67,-1845 -636.42,-922.8 H 5870.49 v 922.8 z m 5900.96,0 H 15270 l -636.4,-922.8 h -1205.7 z m -1776.7,0 h 1205.7 l -636.4,-922.8 h -1205.7 z m -1776.7,0 h 1205.8 l -636.4,-922.8 H 9874.52 Z m -570.89,0 -636.42,-922.8 H 8097.85 l 636.42,922.8 z m 6752.19,-937.1 c -25.2,9.3 -52.4,14.3 -80.9,14.3 h -1406.8 l 636.4,922.8 h 851.3 z m 235,1424.7 c -31.6,0 -61.7,-6.3 -89.2,-17.6 H 6641.35 l 9229.35,4561.5 c 115.2,57 163.3,195.9 108,311.8 l -475.3,997.1 c -67.7,142 -200.4,245.7 -364,284.6 -147.6,35.1 -309.1,16.1 -455,-53.4 L 5222.52,12820.4 c -145.84,-69.5 -262.3,-183.1 -327.94,-319.8 -72.8,-151.6 -75.73,-320 -8.03,-462 l 482.9,-1012.9 c 8.5,-17.8 19,-34.1 31.04,-48.7 V 4159 c 0,-157.3 75.12,-308 206.09,-413.6 118.06,-95.1 272.07,-147.5 433.63,-147.5 H 16522.5 c 161.5,0 315.5,52.4 433.6,147.5 131,105.6 206.1,256.3 206.1,413.6 v 6853.5 c 0,129.8 -105.2,235 -235,235"
         style="fill:#100f0d;fill-opacity:1;fill-rule:nonzero;stroke:none"
         transform="matrix(0.13333333,0,0,-0.13333333,0,2800)" />
    </g>
  </g>
</svg>
