<?xml version="1.0" standalone="no"?>
<!DOCTYPE svg PUBLIC "-//W3C//DTD SVG 20010904//EN"
 "http://www.w3.org/TR/2001/REC-SVG-20010904/DTD/svg10.dtd">
<svg version="1.0" xmlns="http://www.w3.org/2000/svg"
 width="4000.000000pt" height="4000.000000pt" viewBox="0 0 4000.000000 4000.000000"
 preserveAspectRatio="xMidYMid meet">

<g transform="translate(0.000000,4000.000000) scale(0.100000,-0.100000)"
fill="#000000" stroke="none">
<path d="M14556 33399 c-400 -42 -748 -303 -896 -672 -16 -42 -40 -115 -52
-164 l-23 -88 0 -1220 0 -1220 27 -98 c107 -388 400 -681 783 -784 90 -24 118
-26 270 -26 151 0 181 3 266 25 211 57 378 156 525 311 142 151 234 325 275
522 18 85 19 157 19 1270 0 755 -4 1203 -10 1243 -68 416 -391 768 -802 873
-67 17 -256 41 -293 37 -5 0 -46 -4 -89 -9z"/>
<path d="M25630 33400 c-453 -42 -838 -370 -951 -812 -11 -44 -24 -126 -29
-182 -13 -142 -12 -2141 1 -2289 16 -184 78 -366 176 -514 47 -71 181 -213
248 -263 85 -62 188 -119 275 -150 144 -53 209 -64 390 -63 145 0 177 3 262
26 359 95 641 357 759 704 59 172 59 172 59 1405 0 747 -4 1152 -11 1204 -50
362 -284 680 -613 835 -105 49 -234 86 -327 94 -41 3 -92 7 -114 9 -22 2 -78
0 -125 -4z"/>
<path d="M11074 30735 c-303 -45 -601 -158 -859 -326 -256 -167 -471 -347
-625 -523 -368 -424 -589 -896 -682 -1462 l-23 -139 -3 -9515 c-2 -6893 0
-9551 8 -9645 33 -381 127 -714 300 -1055 264 -520 688 -945 1198 -1200 335
-168 637 -246 1042 -271 120 -7 2832 -9 8625 -7 7742 4 8460 5 8565 20 484 69
875 227 1249 508 505 379 870 935 1025 1565 69 280 77 379 83 1005 4 449 8
562 19 589 45 109 96 331 114 493 14 138 14 17991 -1 18126 -35 319 -154 650
-331 917 -334 505 -870 841 -1466 920 -94 12 -289 15 -1158 15 l-1044 0 0
-308 c0 -169 -5 -346 -10 -392 -40 -318 -174 -592 -402 -818 -109 -108 -207
-180 -337 -246 -223 -113 -377 -151 -626 -151 -239 0 -382 32 -594 131 -142
66 -254 146 -376 269 -195 194 -312 402 -374 665 -30 124 -41 282 -41 583 l0
267 -4155 0 -4155 0 0 -338 c0 -381 -8 -455 -66 -630 -194 -588 -751 -975
-1364 -949 -662 29 -1205 519 -1305 1177 -11 68 -15 187 -15 418 l0 322 -1062
-1 c-827 -1 -1083 -4 -1154 -14z m19101 -13215 l0 -6755 -28 -90 c-126 -403
-424 -690 -834 -803 l-98 -27 -8975 -3 c-8053 -2 -8984 -1 -9065 13 -295 51
-557 211 -736 448 -76 101 -160 274 -196 402 l-28 100 -3 6738 -2 6737 9982
-2 9983 -3 0 -6755z m-19950 -8272 c183 -122 397 -216 623 -274 272 -70 -551
-64 9349 -64 6447 0 8991 3 9063 11 56 6 103 9 106 7 7 -8 -104 -78 -221 -139
-178 -93 -347 -151 -545 -185 -102 -18 -378 -19 -8675 -19 -8292 0 -8573 1
-8675 18 -376 67 -725 249 -995 521 -87 88 -171 187 -200 236 -5 8 11 0 35
-19 25 -18 86 -60 135 -93z m190 -1238 c245 -120 466 -190 750 -237 106 -17
435 -18 8760 -18 8276 0 8655 1 8763 18 381 60 740 198 1041 399 40 27 75 48
77 45 9 -9 -134 -173 -238 -273 -148 -141 -269 -227 -448 -317 -214 -108 -391
-161 -620 -187 -68 -8 -2565 -10 -8640 -7 -7798 3 -8552 4 -8620 19 -201 43
-315 81 -475 158 -257 124 -471 295 -659 528 -31 38 -56 72 -56 75 0 4 46 -23
103 -59 56 -36 174 -101 262 -144z"/>
<path d="M13085 22781 c-196 -57 -338 -201 -402 -406 -16 -55 -18 -104 -18
-590 0 -485 2 -535 18 -590 46 -151 161 -289 297 -358 132 -66 159 -69 735
-65 l510 3 75 27 c144 53 256 149 324 278 65 124 66 131 66 711 0 574 0 574
-61 699 -44 89 -161 206 -249 248 -127 62 -132 62 -710 61 -469 0 -531 -2
-585 -18z"/>
<path d="M17435 22782 c-201 -59 -354 -216 -405 -417 -19 -73 -20 -111 -20
-574 0 -387 3 -511 14 -562 46 -216 231 -398 451 -444 102 -21 998 -21 1099 0
221 47 392 207 446 420 19 73 20 110 20 584 0 564 -2 579 -67 703 -66 127
-172 220 -311 276 l-67 27 -550 2 c-498 2 -556 0 -610 -15z"/>
<path d="M21790 22784 c-149 -39 -303 -163 -367 -295 -63 -128 -64 -143 -61
-732 3 -523 3 -533 25 -591 67 -178 192 -301 370 -363 l78 -28 506 -3 c568 -3
595 -1 729 64 102 51 203 152 254 254 65 134 67 160 64 734 -3 499 -4 513 -26
578 -28 83 -108 204 -170 258 -61 52 -161 104 -238 124 -88 23 -1079 23 -1164
0z"/>
<path d="M26136 22785 c-200 -55 -362 -219 -413 -419 -16 -64 -18 -122 -18
-591 l0 -520 28 -80 c64 -182 188 -307 368 -373 l74 -27 510 -3 c576 -4 603
-1 735 65 103 52 203 152 252 253 63 131 63 131 63 705 0 569 0 566 -62 690
-75 148 -233 271 -391 304 -82 17 -1082 13 -1146 -4z"/>
<path d="M13106 18794 c-193 -47 -357 -203 -419 -399 -22 -69 -22 -80 -22
-600 0 -520 0 -531 22 -600 63 -199 228 -353 426 -400 50 -12 157 -15 564 -15
324 0 521 4 555 11 80 16 206 81 270 139 74 66 133 157 163 253 l25 78 0 534
0 534 -25 78 c-30 96 -89 187 -163 253 -64 58 -190 123 -270 139 -85 18 -1051
13 -1126 -5z"/>
<path d="M17443 18790 c-215 -57 -374 -224 -419 -441 -12 -61 -14 -158 -12
-588 3 -502 4 -518 26 -582 57 -170 201 -314 371 -372 64 -21 79 -22 590 -25
498 -3 527 -2 603 17 168 43 301 149 375 302 23 46 47 111 52 143 15 81 15
1037 0 1108 -6 29 -29 91 -52 137 -67 138 -176 234 -334 294 -57 21 -69 22
-593 24 -498 2 -540 1 -607 -17z"/>
<path d="M21815 18798 c-27 -5 -88 -27 -134 -49 -149 -73 -268 -220 -306 -380
-22 -94 -22 -1054 0 -1148 22 -92 80 -196 150 -267 67 -67 125 -105 224 -143
l66 -26 528 -3 c503 -3 533 -2 609 17 166 42 302 153 378 308 57 118 60 148
60 688 0 540 -3 570 -60 688 -76 154 -211 265 -376 307 -72 19 -109 20 -583
19 -278 -1 -528 -5 -556 -11z"/>
<path d="M26153 18795 c-202 -44 -383 -225 -434 -435 -20 -80 -20 -1050 0
-1130 52 -214 232 -391 438 -435 98 -21 1027 -21 1124 -1 200 43 373 206 436
411 16 55 18 104 18 590 0 486 -2 535 -18 590 -62 203 -230 363 -429 410 -88
21 -1041 20 -1135 0z"/>
<path d="M13120 14805 c-201 -44 -375 -208 -437 -410 -16 -55 -18 -105 -18
-590 0 -486 2 -535 18 -590 59 -190 188 -328 373 -398 58 -22 68 -22 597 -25
594 -3 598 -3 726 60 89 43 207 161 250 248 61 126 61 125 61 700 0 583 0 586
-65 709 -69 130 -180 226 -325 279 l-75 27 -520 2 c-418 2 -533 -1 -585 -12z"/>
<path d="M17470 14804 c-216 -46 -400 -230 -446 -443 -11 -51 -14 -175 -14
-562 0 -463 1 -501 20 -574 40 -157 147 -294 285 -367 133 -69 132 -69 738
-66 l542 3 67 27 c139 56 245 149 311 276 65 124 67 139 67 703 0 474 -1 511
-20 584 -54 213 -225 373 -446 420 -98 21 -1007 20 -1104 -1z"/>
<path d="M21803 14800 c-182 -48 -318 -160 -393 -325 -48 -105 -50 -133 -50
-673 0 -559 2 -577 63 -701 43 -88 158 -204 247 -248 125 -62 132 -63 703 -63
576 0 583 1 707 66 90 47 151 102 209 190 96 144 95 134 99 720 3 574 1 600
-64 734 -51 102 -152 203 -254 254 -130 63 -157 66 -705 65 -447 0 -496 -2
-562 -19z"/>
<path d="M26165 14805 c-206 -45 -359 -184 -432 -392 l-28 -78 0 -525 c0 -582
0 -585 68 -715 44 -85 165 -203 247 -244 125 -61 125 -61 692 -61 337 0 535 4
570 11 158 33 316 156 391 304 62 124 62 121 62 690 0 574 0 574 -63 705 -72
148 -231 270 -397 305 -97 20 -1019 20 -1110 0z"/>
</g>
</svg>
